<?xml version="1.0" encoding="UTF-8" standalone="no"?>
<svg width="6100.0" height="5600.0" xmlns="http://www.w3.org/2000/svg" xmlns:svg="http://www.w3.org/2000/svg">
  <rect width="6100.0" height="5600.0" fill="white" />
  <path d="M 100.0 50.0 L 3000.0 50.0 Q 3050.0 50.0 3050.0 100.0 L 3050.0 2500.0 Q 3050.0 2550.0 3000.0 2550.0 L 100.0 2550.0 Q 50.0 2550.0 50.0 2500.0 L 50.0 100.0 Q 50.0 50.0 100.0 50.0 Z" fill="#FFF0F5" stroke="#000000" stroke-width="2" />
  <path d="M 110.0 2550.0 L 3990.0 2550.0 Q 4050.0 2550.0 4050.0 2610.0 L 4050.0 5490.0 Q 4050.0 5550.0 3990.0 5550.0 L 110.0 5550.0 Q 50.0 5550.0 50.0 5490.0 L 50.0 2610.0 Q 50.0 2550.0 110.0 2550.0 Z" fill="#F0FFF0" stroke="#000000" stroke-width="2" />
  <path d="M 3080.0 50.0 L 5020.0 50.0 Q 5050.0 50.0 5050.0 80.0 L 5050.0 1520.0 Q 5050.0 1550.0 5020.0 1550.0 L 3080.0 1550.0 Q 3050.0 1550.0 3050.0 1520.0 L 3050.0 80.0 Q 3050.0 50.0 3080.0 50.0 Z" fill="#E0FFFF" stroke="#000000" stroke-width="2" />
  <path d="M 3070.0 1550.0 L 6030.0 1550.0 Q 6050.0 1550.0 6050.0 1570.0 L 6050.0 2530.0 Q 6050.0 2550.0 6030.0 2550.0 L 3070.0 2550.0 Q 3050.0 2550.0 3050.0 2530.0 L 3050.0 1570.0 Q 3050.0 1550.0 3070.0 1550.0 Z" fill="#FFF8DC" stroke="#000000" stroke-width="2" />
  <line x1="50.0" y1="50.0" x2="3050.0" y2="50.0" stroke="#000000" stroke-width="3" />
  <line x1="3050.0" y1="50.0" x2="3050.0" y2="2550.0" stroke="#000000" stroke-width="3" />
  <line x1="3050.0" y1="2550.0" x2="50.0" y2="2550.0" stroke="#000000" stroke-width="3" />
  <line x1="50.0" y1="2550.0" x2="50.0" y2="50.0" stroke="#000000" stroke-width="3" />
  <line x1="50.0" y1="2550.0" x2="4050.0" y2="2550.0" stroke="#000000" stroke-width="3" />
  <line x1="4050.0" y1="2550.0" x2="4050.0" y2="5550.0" stroke="#000000" stroke-width="3" />
  <line x1="4050.0" y1="5550.0" x2="50.0" y2="5550.0" stroke="#000000" stroke-width="3" />
  <line x1="50.0" y1="5550.0" x2="50.0" y2="2550.0" stroke="#000000" stroke-width="3" />
  <line x1="3050.0" y1="50.0" x2="5050.0" y2="50.0" stroke="#000000" stroke-width="3" />
  <line x1="5050.0" y1="50.0" x2="5050.0" y2="1550.0" stroke="#000000" stroke-width="3" />
  <line x1="5050.0" y1="1550.0" x2="3050.0" y2="1550.0" stroke="#000000" stroke-width="3" />
  <line x1="3050.0" y1="1550.0" x2="3050.0" y2="50.0" stroke="#000000" stroke-width="3" />
  <line x1="3050.0" y1="1550.0" x2="6050.0" y2="1550.0" stroke="#000000" stroke-width="3" />
  <line x1="6050.0" y1="1550.0" x2="6050.0" y2="2550.0" stroke="#000000" stroke-width="3" />
  <line x1="6050.0" y1="2550.0" x2="3050.0" y2="2550.0" stroke="#000000" stroke-width="3" />
  <line x1="3050.0" y1="2550.0" x2="3050.0" y2="1550.0" stroke="#000000" stroke-width="3" />
  <text x="1550.0" y="1300.0" font-size="14" fill="#8B008B" text-anchor="middle" dominant-baseline="middle">Bedroom (75000.0 m²)</text>
  <text x="1550.0" y="45.0" font-size="11.200000000000001" fill="#8B008B" text-anchor="middle" dominant-baseline="middle">300.0</text>
  <text x="40.0" y="1300.0" font-size="11.200000000000001" fill="#8B008B" text-anchor="middle" dominant-baseline="middle">250.0</text>
  <text x="2050.0" y="4050.0" font-size="14" fill="#006400" text-anchor="middle" dominant-baseline="middle">Living-Room (120000.0 m²)</text>
  <text x="2050.0" y="2545.0" font-size="11.200000000000001" fill="#006400" text-anchor="middle" dominant-baseline="middle">400.0</text>
  <text x="40.0" y="4050.0" font-size="11.200000000000001" fill="#006400" text-anchor="middle" dominant-baseline="middle">300.0</text>
  <text x="4050.0" y="800.0" font-size="14" fill="#008B8B" text-anchor="middle" dominant-baseline="middle">Bathroom (30000.0 m²)</text>
  <text x="4050.0" y="45.0" font-size="11.200000000000001" fill="#008B8B" text-anchor="middle" dominant-baseline="middle">200.0</text>
  <text x="3040.0" y="800.0" font-size="11.200000000000001" fill="#008B8B" text-anchor="middle" dominant-baseline="middle">150.0</text>
  <text x="4550.0" y="2050.0" font-size="14" fill="#0000AA" text-anchor="middle" dominant-baseline="middle">kitchen (30000.0 m²)</text>
  <text x="4550.0" y="1545.0" font-size="11.200000000000001" fill="#0000AA" text-anchor="middle" dominant-baseline="middle">300.0</text>
  <text x="3040.0" y="2050.0" font-size="11.200000000000001" fill="#0000AA" text-anchor="middle" dominant-baseline="middle">100.0</text>
  <line x1="750.0" y1="2550.0" x2="1150.0" y2="2550.0" stroke="#000000" stroke-width="1" />
  <path d="M 750.0 2550.0 Q 950.0 2400.0 1150.0 2550.0" fill="none" stroke="#000000" stroke-width="1" />
  <rect x="930.0" y="2505.0" width="40.0" height="15.0" fill="#888888" stroke="#000000" stroke-width="0.5" />
  <rect x="0.0" y="1050.0" width="100.0" height="400.0" fill="#E6F7FF" stroke="#000000" stroke-width="1" />
  <line x1="50.0" y1="1050.0" x2="50.0" y2="1450.0" stroke="#000000" stroke-width="1.5" />
  <line x1="25.0" y1="1050.0" x2="25.0" y2="1150.0" stroke="#000000" stroke-width="0.7" />
  <line x1="0.0" y1="1150.0" x2="100.0" y2="1150.0" stroke="#000000" stroke-width="0.7" />
  <line x1="25.0" y1="1150.0" x2="25.0" y2="1250.0" stroke="#000000" stroke-width="0.7" />
  <line x1="0.0" y1="1250.0" x2="100.0" y2="1250.0" stroke="#000000" stroke-width="0.7" />
  <line x1="25.0" y1="1250.0" x2="25.0" y2="1350.0" stroke="#000000" stroke-width="0.7" />
  <line x1="0.0" y1="1350.0" x2="100.0" y2="1350.0" stroke="#000000" stroke-width="0.7" />
  <line x1="25.0" y1="1350.0" x2="25.0" y2="1450.0" stroke="#000000" stroke-width="0.7" />
  <g ><rect x="1050.0" y="150.0" width="1000.0" height="1500.0" fill="#EFEFEF" stroke="#000000" stroke-width="1" /><rect x="1100.0" y="300.0" width="900.0" height="1200.0" rx="90.0" ry="90.0" fill="#FFFFFF" stroke="#000000" stroke-width="0.5" /><rect x="1100.0" y="200.0" width="425.0" height="300.0" rx="90.0" ry="90.0" fill="#F8F8F8" stroke="#000000" stroke-width="0.5" /><rect x="1575.0" y="200.0" width="425.0" height="300.0" rx="90.0" ry="90.0" fill="#F8F8F8" stroke="#000000" stroke-width="0.5" /><rect x="1020.0" y="105.0" width="1060.0" height="225.0" fill="#EFEFEF" stroke="#000000" stroke-width="1" /></g>
  <rect x="400.0" y="750.0" width="300.0" height="150.0" fill="#CCCCCC" stroke="#000000" stroke-width="1" />
  <rect x="400.0" y="705.0" width="300.0" height="45.0" fill="#CCCCCC" stroke="#000000" stroke-width="1" />
  <rect x="5050.0" y="5050.0" width="300.0" height="150.0" fill="#BBBBBB" stroke="#000000" stroke-width="1" />
  <line x1="5125.0" y1="5125.0" x2="5275.0" y2="5125.0" stroke="#000000" stroke-width="1" />
  <line x1="5200.0" y1="5087.5" x2="5200.0" y2="5162.5" stroke="#000000" stroke-width="1" />
  <rect x="5072.5" y="5072.5" width="255.0" height="105.0" fill="none" stroke="#000000" stroke-width="0.5" />
  <rect x="4050.0" y="4050.0" width="300.0" height="150.0" fill="#DDDDDD" stroke="#000000" stroke-width="1" />
  <line x1="4050.0" y1="4050.0" x2="4050.0" y2="4200.0" stroke="#000000" stroke-width="0.5" />
  <line x1="4080.0" y1="4050.0" x2="4080.0" y2="4200.0" stroke="#000000" stroke-width="0.5" />
  <line x1="4110.0" y1="4050.0" x2="4110.0" y2="4200.0" stroke="#000000" stroke-width="0.5" />
  <line x1="4140.0" y1="4050.0" x2="4140.0" y2="4200.0" stroke="#000000" stroke-width="0.5" />
  <line x1="4170.0" y1="4050.0" x2="4170.0" y2="4200.0" stroke="#000000" stroke-width="0.5" />
  <line x1="4200.0" y1="4050.0" x2="4200.0" y2="4200.0" stroke="#000000" stroke-width="0.5" />
  <line x1="4230.0" y1="4050.0" x2="4230.0" y2="4200.0" stroke="#000000" stroke-width="0.5" />
  <line x1="4260.0" y1="4050.0" x2="4260.0" y2="4200.0" stroke="#000000" stroke-width="0.5" />
  <line x1="4290.0" y1="4050.0" x2="4290.0" y2="4200.0" stroke="#000000" stroke-width="0.5" />
  <line x1="4320.0" y1="4050.0" x2="4320.0" y2="4200.0" stroke="#000000" stroke-width="0.5" />
  <path d="M 4110.0 4170.0 L 4290.0 4080.0" fill="none" stroke="#000000" stroke-width="1" />
  <path d="M 4275.0 4087.5 L 4290.0 4080.0 L 4305.0 4095.0" fill="none" stroke="#000000" stroke-width="1" />
  <rect x="300.0" y="150.0" width="500.0" height="500.0" fill="#DDDDDD" stroke="#000000" stroke-width="1" />
  <rect x="300.0" y="150.0" width="50.0" height="50.0" fill="#DDDDDD" stroke="#000000" stroke-width="1" />
  <rect x="750.0" y="150.0" width="50.0" height="50.0" fill="#DDDDDD" stroke="#000000" stroke-width="1" />
  <rect x="750.0" y="600.0" width="50.0" height="50.0" fill="#DDDDDD" stroke="#000000" stroke-width="1" />
  <rect x="300.0" y="600.0" width="50.0" height="50.0" fill="#DDDDDD" stroke="#000000" stroke-width="1" />
</svg>