<?xml version="1.0" encoding="UTF-8" standalone="no"?>
<svg width="10100.0" height="10100.0" xmlns="http://www.w3.org/2000/svg" xmlns:svg="http://www.w3.org/2000/svg">
  <rect width="10100.0" height="10100.0" fill="white" />
  <rect x="50.0" y="50.0" width="10000.0" height="10000.0" fill="#F0FFF0" stroke="#000000" stroke-width="2" />
  <text x="5050.0" y="5050.0" font-size="14" fill="#006400" text-anchor="middle" dominant-baseline="middle">Living Room (1000000.0 m²)</text>
  <line x1="50.0" y1="50.0" x2="10050.0" y2="50.0" stroke="#000000" stroke-width="3" />
  <line x1="10050.0" y1="50.0" x2="10050.0" y2="10050.0" stroke="#000000" stroke-width="3" />
  <line x1="10050.0" y1="10050.0" x2="50.0" y2="10050.0" stroke="#000000" stroke-width="3" />
  <line x1="50.0" y1="10050.0" x2="50.0" y2="50.0" stroke="#000000" stroke-width="3" />
  <rect x="7050.0" y="3050.0" width="3000.0" height="3000.0" fill="#E0FFFF" stroke="#000000" stroke-width="2" />
  <text x="8550.0" y="4550.0" font-size="14" fill="#008B8B" text-anchor="middle" dominant-baseline="middle">Bathroom (90000.0 m²)</text>
  <line x1="7050.0" y1="3050.0" x2="10050.0" y2="3050.0" stroke="#000000" stroke-width="3" />
  <line x1="10050.0" y1="3050.0" x2="10050.0" y2="6050.0" stroke="#000000" stroke-width="3" />
  <line x1="10050.0" y1="6050.0" x2="7050.0" y2="6050.0" stroke="#000000" stroke-width="3" />
  <line x1="7050.0" y1="6050.0" x2="7050.0" y2="3050.0" stroke="#000000" stroke-width="3" />
  <rect x="50.0" y="4050.0" width="2000.0" height="2000.0" fill="#F0F8FF" stroke="#000000" stroke-width="2" />
  <text x="1050.0" y="5050.0" font-size="14" fill="#0000AA" text-anchor="middle" dominant-baseline="middle">kitchen (40000.0 m²)</text>
  <line x1="50.0" y1="4050.0" x2="2050.0" y2="4050.0" stroke="#000000" stroke-width="3" />
  <line x1="2050.0" y1="4050.0" x2="2050.0" y2="6050.0" stroke="#000000" stroke-width="3" />
  <line x1="2050.0" y1="6050.0" x2="50.0" y2="6050.0" stroke="#000000" stroke-width="3" />
  <line x1="50.0" y1="6050.0" x2="50.0" y2="4050.0" stroke="#000000" stroke-width="3" />
  <rect x="5550.0" y="50.0" width="4000.0" height="3500.0" fill="#F0FFFF" stroke="#000000" stroke-width="2" />
  <text x="7550.0" y="1800.0" font-size="14" fill="#4682B4" text-anchor="middle" dominant-baseline="middle">Guest Room (140000.0 m²)</text>
  <line x1="5550.0" y1="50.0" x2="9550.0" y2="50.0" stroke="#000000" stroke-width="3" />
  <line x1="9550.0" y1="50.0" x2="9550.0" y2="3550.0" stroke="#000000" stroke-width="3" />
  <line x1="9550.0" y1="3550.0" x2="5550.0" y2="3550.0" stroke="#000000" stroke-width="3" />
  <line x1="5550.0" y1="3550.0" x2="5550.0" y2="50.0" stroke="#000000" stroke-width="3" />
  <line x1="3550.0" y1="7750.0" x2="4550.0" y2="7750.0" stroke="#000000" stroke-width="1" />
  <path d="M 3550.0 7750.0 Q 4050.0 7550.0 4550.0 7750.0" fill="none" stroke="#000000" stroke-width="1" />
  <line x1="2350.0" y1="5850.0" x2="3150.0" y2="5850.0" stroke="#000000" stroke-width="1" />
  <path d="M 2350.0 5850.0 Q 2750.0 6050.0 3150.0 5850.0" fill="none" stroke="#000000" stroke-width="1" />
  <line x1="6250.0" y1="4550.0" x2="6250.0" y2="5350.0" stroke="#000000" stroke-width="1" />
  <path d="M 6250.0 4550.0 Q 6050.0 4950.0 6250.0 5350.0" fill="none" stroke="#000000" stroke-width="1" />
  <line x1="3550.0" y1="50.0" x2="5050.0" y2="50.0" stroke="#000000" stroke-width="1" />
  <line x1="3925.0" y1="-50.0" x2="3925.0" y2="150.0" stroke="#000000" stroke-width="0.5" />
  <line x1="4300.0" y1="-50.0" x2="4300.0" y2="150.0" stroke="#000000" stroke-width="0.5" />
  <line x1="4675.0" y1="-50.0" x2="4675.0" y2="150.0" stroke="#000000" stroke-width="0.5" />
  <line x1="50.0" y1="5050.0" x2="50.0" y2="6050.0" stroke="#000000" stroke-width="1" />
  <line x1="-50.0" y1="5300.0" x2="150.0" y2="5300.0" stroke="#000000" stroke-width="0.5" />
  <line x1="-50.0" y1="5550.0" x2="150.0" y2="5550.0" stroke="#000000" stroke-width="0.5" />
  <line x1="-50.0" y1="5800.0" x2="150.0" y2="5800.0" stroke="#000000" stroke-width="0.5" />
  <line x1="9550.0" y1="4550.0" x2="9550.0" y2="5550.0" stroke="#000000" stroke-width="1" />
  <line x1="9450.0" y1="4800.0" x2="9650.0" y2="4800.0" stroke="#000000" stroke-width="0.5" />
  <line x1="9450.0" y1="5050.0" x2="9650.0" y2="5050.0" stroke="#000000" stroke-width="0.5" />
  <line x1="9450.0" y1="5300.0" x2="9650.0" y2="5300.0" stroke="#000000" stroke-width="0.5" />
  <line x1="8050.0" y1="50.0" x2="9050.0" y2="50.0" stroke="#000000" stroke-width="1" />
  <line x1="8300.0" y1="-50.0" x2="8300.0" y2="150.0" stroke="#000000" stroke-width="0.5" />
  <line x1="8550.0" y1="-50.0" x2="8550.0" y2="150.0" stroke="#000000" stroke-width="0.5" />
  <line x1="8800.0" y1="-50.0" x2="8800.0" y2="150.0" stroke="#000000" stroke-width="0.5" />
  <rect x="6050.0" y="1050.0" width="1500.0" height="2000.0" fill="#EFEFEF" stroke="#000000" stroke-width="1" />
  <rect x="6050.0" y="1050.0" width="712.5" height="400.0" fill="#EEEEEE" stroke="#000000" stroke-width="0.5" />
  <rect x="6837.5" y="1050.0" width="712.5" height="400.0" fill="#EEEEEE" stroke="#000000" stroke-width="0.5" />
  <rect x="5950.0" y="950.0" width="1700.0" height="200.0" fill="#EFEFEF" stroke="#000000" stroke-width="1" />
  <rect x="3050.0" y="3050.0" width="1500.0" height="1200.0" fill="#DDDDDD" stroke="#000000" stroke-width="1" />
  <rect x="3050.0" y="3050.0" width="120.0" height="120.0" fill="#DDDDDD" stroke="#000000" stroke-width="1" />
  <rect x="4430.0" y="3050.0" width="120.0" height="120.0" fill="#DDDDDD" stroke="#000000" stroke-width="1" />
  <rect x="4430.0" y="4130.0" width="120.0" height="120.0" fill="#DDDDDD" stroke="#000000" stroke-width="1" />
  <rect x="3050.0" y="4130.0" width="120.0" height="120.0" fill="#DDDDDD" stroke="#000000" stroke-width="1" />
  <rect x="2750.0" y="2750.0" width="400.0" height="400.0" fill="#CCCCCC" stroke="#000000" stroke-width="1" />
  <rect x="2750.0" y="2630.0" width="400.0" height="120.0" fill="#CCCCCC" stroke="#000000" stroke-width="1" />
  <rect x="4450.0" y="2750.0" width="400.0" height="400.0" fill="#CCCCCC" stroke="#000000" stroke-width="1" />
  <rect x="4450.0" y="2630.0" width="400.0" height="120.0" fill="#CCCCCC" stroke="#000000" stroke-width="1" />
  <rect x="2750.0" y="4150.0" width="400.0" height="400.0" fill="#CCCCCC" stroke="#000000" stroke-width="1" />
  <rect x="2750.0" y="4030.0" width="400.0" height="120.0" fill="#CCCCCC" stroke="#000000" stroke-width="1" />
  <rect x="4450.0" y="4150.0" width="400.0" height="400.0" fill="#CCCCCC" stroke="#000000" stroke-width="1" />
  <rect x="4450.0" y="4030.0" width="400.0" height="120.0" fill="#CCCCCC" stroke="#000000" stroke-width="1" />
  <rect x="1550.0" y="4550.0" width="1000.0" height="1500.0" fill="#DDDDDD" stroke="#000000" stroke-width="1" />
  <line x1="1550.0" y1="4550.0" x2="2550.0" y2="4550.0" stroke="#000000" stroke-width="0.5" />
  <line x1="1550.0" y1="4700.0" x2="2550.0" y2="4700.0" stroke="#000000" stroke-width="0.5" />
  <line x1="1550.0" y1="4850.0" x2="2550.0" y2="4850.0" stroke="#000000" stroke-width="0.5" />
  <line x1="1550.0" y1="5000.0" x2="2550.0" y2="5000.0" stroke="#000000" stroke-width="0.5" />
  <line x1="1550.0" y1="5150.0" x2="2550.0" y2="5150.0" stroke="#000000" stroke-width="0.5" />
  <line x1="1550.0" y1="5300.0" x2="2550.0" y2="5300.0" stroke="#000000" stroke-width="0.5" />
  <line x1="1550.0" y1="5450.0" x2="2550.0" y2="5450.0" stroke="#000000" stroke-width="0.5" />
  <line x1="1550.0" y1="5600.0" x2="2550.0" y2="5600.0" stroke="#000000" stroke-width="0.5" />
  <line x1="1550.0" y1="5750.0" x2="2550.0" y2="5750.0" stroke="#000000" stroke-width="0.5" />
  <line x1="1550.0" y1="5900.0" x2="2550.0" y2="5900.0" stroke="#000000" stroke-width="0.5" />
  <path d="M 1750.0 5750.0 L 2350.0 4850.0" fill="none" stroke="#000000" stroke-width="1" />
  <path d="M 2300.0 4925.0 L 2350.0 4850.0 L 2400.0 5000.0" fill="none" stroke="#000000" stroke-width="1" />
  <rect x="1550.0" y="1550.0" width="800.0" height="800.0" fill="#BBBBBB" stroke="#000000" stroke-width="1" />
  <line x1="1750.0" y1="1950.0" x2="2150.0" y2="1950.0" stroke="#000000" stroke-width="1" />
  <line x1="1950.0" y1="1750.0" x2="1950.0" y2="2150.0" stroke="#000000" stroke-width="1" />
  <rect x="1670.0" y="1670.0" width="560.0" height="560.0" fill="none" stroke="#000000" stroke-width="0.5" />
</svg>